<svg xmlns="http://www.w3.org/2000/svg" width="89" height="99" fill="none"><rect width="100%" height="100%"/><g class="currentLayer"><path d="M86.565 76.342L46.421 99.053V81.368l25.013-13.763 15.131 8.737zm2.75-2.487V26.368l-14.683 8.487v30.526l14.683 8.474zM2.75 76.342l40.145 22.711V81.368L17.868 67.605 2.75 76.342zM0 73.855V26.368l14.684 8.487v30.526L0 73.855zM1.724 23.29L42.894 0v17.092l-26.38 14.513-.211.119-14.58-8.435zm85.868 0L46.421 0v17.092l26.382 14.5.21.118 14.58-8.42zM42.894 77.342l-24.685-13.58v-26.88l24.685 14.25v26.21zm3.526 0l24.684-13.566V36.881L46.42 51.131v26.21zM19.88 33.776l24.777-13.618 24.776 13.618L44.657 48.08 19.88 33.776z" fill="#D1D2D6"/></g></svg>